<?xml version="1.0" encoding="UTF-8" standalone="no"?>
<!DOCTYPE svg PUBLIC "-//W3C//DTD SVG 1.1//EN" "http://www.w3.org/Graphics/SVG/1.1/DTD/svg11.dtd">
<svg width="120.00" height="120.00" viewBox="0.00 0.00 500.00 500.00" xmlns="http://www.w3.org/2000/svg" xmlns:xlink="http://www.w3.org/1999/xlink">
<g stroke-linecap="round" id="레이어_2">
<path d="M378.35,181.57 C377.54,181.57 376.73,181.57 375.92,181.57 C374.69,181.57 373.46,181.57 372.23,181.57 C370.99,181.57 369.76,181.57 368.53,181.57 C367.72,181.56 366.91,181.56 366.10,181.56" fill="none" stroke="rgb(0, 0, 0)" stroke-width="7.00" stroke-opacity="1.00" stroke-linejoin="round"/>
<path d="M130.39,176.95 C132.94,175.25 138.19,172.35 141.91,170.71 C147.37,168.33 164.57,165.26 171.11,164.56 C178.37,163.80 190.30,163.29 200.61,163.21 C210.10,163.22 216.42,163.53 228.16,164.85 C244.03,166.89 272.10,170.72 286.23,173.61 C296.05,175.81 307.72,179.17 314.67,181.72 C323.28,184.90 347.17,196.61 351.55,199.32 C351.55,199.32 350.61,200.22 350.61,200.22" fill="none" stroke="rgb(0, 0, 0)" stroke-width="7.00" stroke-opacity="1.00" stroke-linejoin="round"/>
<path d="M369.34,184.11 C374.12,184.83 380.52,186.45 382.98,187.83 C385.51,189.31 389.49,193.52 390.68,196.09 C391.21,197.34 391.88,200.49 391.85,201.96 C391.78,203.50 390.40,205.62 389.18,206.34 C387.75,207.09 382.13,207.17 380.54,207.19 C379.85,207.19 379.15,207.19 378.45,207.19" fill="none" stroke="rgb(0, 0, 0)" stroke-width="7.00" stroke-opacity="1.00" stroke-linejoin="round"/>
<path d="M198.74,259.00 C196.07,257.65 190.49,255.29 187.12,255.23 C185.15,255.22 180.46,257.37 178.28,259.75 C176.18,262.09 173.05,267.86 171.59,271.44 C170.34,274.58 168.68,279.96 167.99,284.25 C167.59,286.79 165.78,289.62 165.35,290.79 C165.21,291.18 165.30,291.65 165.61,292.20 C166.78,293.24 168.74,293.77 171.41,293.64 C173.16,293.54 177.85,291.80 181.83,289.71 C185.53,287.71 192.81,283.71 196.53,281.45 C200.55,278.97 203.01,276.56 205.05,273.63 C205.05,273.63 204.62,271.71 204.62,271.71" fill="none" stroke="rgb(0, 0, 0)" stroke-width="7.00" stroke-opacity="1.00" stroke-linejoin="round"/>
<path d="M209.73,262.29 C212.54,259.92 218.75,257.62 221.44,257.40 C224.47,257.19 229.71,257.65 232.29,258.37 C234.85,259.12 239.92,262.42 241.23,264.03 C243.59,267.04 245.80,273.55 246.10,277.93 C246.23,280.07 246.26,291.57 246.26,292.29 C246.01,292.78 240.47,292.99 237.62,292.29 C237.12,292.17 226.32,288.54 223.90,287.56 C221.44,286.56 215.76,283.19 214.17,281.76 C212.59,280.30 210.57,276.59 210.21,276.01 C210.11,275.85 209.99,275.73 209.86,275.67" fill="none" stroke="rgb(0, 0, 0)" stroke-width="7.00" stroke-opacity="1.00" stroke-linejoin="round"/>
<path d="M175.09,220.28 C175.09,220.28 175.16,222.05 175.16,222.05 C175.16,222.05 176.84,222.17 176.84,222.17 C176.84,222.17 177.88,217.63 177.88,217.63 C175.85,217.87 174.50,218.72 174.45,220.00 C174.44,220.26 174.55,220.62 174.79,221.07 C174.79,221.07 176.79,220.11 176.79,220.11 C176.79,220.11 175.02,220.13 175.02,220.13 C175.02,220.13 176.42,220.70 176.42,220.70" fill="none" stroke="rgb(0, 0, 0)" stroke-width="7.00" stroke-opacity="1.00" stroke-linejoin="round"/>
<path d="M255.75,225.75 C255.75,225.75 255.82,227.52 255.82,227.52 C255.82,227.52 257.50,227.64 257.50,227.64 C257.50,227.64 258.54,223.10 258.54,223.10 C256.51,223.34 255.17,224.18 255.11,225.47 C255.10,225.73 255.22,226.09 255.46,226.54 C255.46,226.54 257.45,225.58 257.45,225.58 C257.45,225.58 255.68,225.60 255.68,225.60 C255.68,225.60 257.09,226.17 257.09,226.17" fill="none" stroke="rgb(0, 0, 0)" stroke-width="7.00" stroke-opacity="1.00" stroke-linejoin="round"/>
<path d="M268.13,333.13 C270.37,328.24 272.78,323.67 274.81,321.06 C276.69,318.70 281.77,315.11 286.66,312.26 C292.79,308.73 304.62,304.07 310.92,302.47 C317.83,300.75 332.21,299.01 340.05,299.01 C347.71,299.03 362.58,300.78 369.54,302.49 C376.84,304.31 388.62,309.60 393.10,312.55 C396.51,314.82 401.61,320.20 403.15,322.48 C404.96,325.22 407.09,331.22 407.55,334.73 C407.94,338.01 407.69,344.02 407.13,347.82 C406.29,353.31 401.51,365.69 397.21,372.90 C395.38,375.91 391.74,379.88 388.43,382.23 C384.02,385.32 371.94,389.64 365.02,391.00 C358.10,392.33 340.23,393.35 334.75,393.23 C327.23,393.03 314.32,390.85 307.96,389.17 C302.08,387.62 290.95,383.23 285.87,380.19 C282.78,378.31 277.58,374.37 275.53,372.10 C274.03,370.40 272.94,368.10 272.81,366.32 C272.68,363.70 274.29,359.46 275.98,358.01 C276.72,357.38 284.44,351.36 284.86,350.98 C286.06,349.82 286.89,348.28 286.53,347.56 C284.79,344.63 270.91,339.57 269.69,339.27 C269.56,339.23 269.36,339.20 269.09,339.16" fill="none" stroke="rgb(0, 0, 0)" stroke-width="7.00" stroke-opacity="1.00" stroke-linejoin="round"/>
<path d="M310.94,318.53 C311.18,320.11 311.67,323.19 312.03,323.71 C312.78,324.74 314.90,325.67 316.77,325.80 C316.88,325.80 322.97,325.88 323.19,325.88 C325.70,325.77 327.95,325.09 328.68,323.99 C329.18,323.21 329.70,320.47 329.75,319.15 C329.75,317.46 329.31,315.85 328.55,315.22 C327.35,314.30 319.49,313.44 316.76,313.75 C314.72,314.00 312.31,315.04 311.27,316.01 C311.07,316.20 310.80,316.53 310.46,316.98" fill="none" stroke="rgb(0, 0, 0)" stroke-width="7.00" stroke-opacity="1.00" stroke-linejoin="round"/>
<path d="M352.49,317.30 C352.49,317.30 346.84,325.59 346.84,325.59 C347.51,327.33 348.90,328.44 351.29,328.94 C352.94,329.27 358.56,328.98 360.03,328.42 C362.14,327.56 364.79,325.57 365.47,324.18 C366.05,322.91 365.89,320.19 365.26,318.81 C365.05,318.39 362.70,315.32 362.19,315.07 C360.86,314.49 358.81,315.04 357.68,316.21 C357.04,316.91 356.40,317.60 355.76,318.29" fill="none" stroke="rgb(0, 0, 0)" stroke-width="7.00" stroke-opacity="1.00" stroke-linejoin="round"/>
<path d="M384.83,334.82 C382.48,336.42 381.42,337.23 380.06,338.56 C378.94,339.71 378.47,341.29 378.87,342.93 C379.27,344.41 380.98,346.56 382.39,347.43 C383.53,348.09 386.34,348.76 387.68,348.72 C389.21,348.64 391.59,347.65 392.61,346.67 C394.14,345.11 394.88,339.95 394.34,337.65 C394.00,336.34 393.09,335.11 392.13,334.70 C391.32,334.41 388.84,334.43 387.76,334.86 C387.26,335.06 386.08,335.64 384.23,336.59" fill="none" stroke="rgb(0, 0, 0)" stroke-width="7.00" stroke-opacity="1.00" stroke-linejoin="round"/>
<path d="M361.08,366.95 C359.75,368.80 359.00,369.93 358.23,371.32 C357.45,372.73 357.59,373.89 358.56,375.66 C361.98,376.80 367.84,376.37 369.50,375.61 C371.23,374.77 373.55,372.97 374.26,371.84 C374.72,371.06 374.95,368.00 374.68,366.59 C374.22,364.48 372.15,363.14 369.39,362.92 C368.61,362.87 365.36,363.00 364.02,363.07 C363.52,363.11 362.42,363.21 360.74,363.38" fill="none" stroke="rgb(0, 0, 0)" stroke-width="7.00" stroke-opacity="1.00" stroke-linejoin="round"/>
<path d="M322.66,365.72 C322.66,365.72 322.09,373.31 322.09,373.31 C326.74,374.81 333.51,376.01 335.90,374.95 C336.83,374.50 338.77,372.13 338.99,371.04 C339.33,368.95 338.61,365.59 337.36,364.42 C335.97,363.20 333.25,362.18 331.42,362.12 C328.15,362.11 324.03,363.65 323.45,364.27 C323.16,364.60 322.65,365.43 321.93,366.75" fill="none" stroke="rgb(0, 0, 0)" stroke-width="7.00" stroke-opacity="1.00" stroke-linejoin="round"/>
<path d="M68.33,298.37 C67.14,304.00 65.98,311.05 66.40,320.19 C66.60,324.03 67.56,328.74 69.06,333.23 C70.28,336.77 73.27,342.52 75.12,345.20 C76.93,347.76 80.99,352.25 83.19,354.15 C85.33,355.98 89.81,358.94 92.34,360.16 C95.17,361.48 98.82,362.63 102.06,363.11 C106.27,363.72 111.33,363.75 114.36,363.15 C117.12,362.57 122.34,360.34 124.59,358.94 C126.42,357.77 131.35,353.65 133.71,350.81 C136.16,347.81 139.52,340.95 140.42,337.22 C141.23,333.68 141.73,325.76 141.34,322.19 C140.71,316.66 136.25,304.22 133.36,298.37 C131.70,295.03 129.23,290.77 127.39,288.09 C125.64,285.56 121.10,280.87 118.16,279.27 C115.01,277.61 110.40,276.68 106.63,276.59 C103.26,276.53 96.48,276.55 93.91,277.09 C92.20,277.47 87.48,279.59 84.24,281.75 C80.02,284.61 75.27,288.79 72.13,292.42 C69.72,295.24 68.04,297.99 67.44,299.22 C67.07,299.97 66.71,300.72 66.34,301.48" fill="none" stroke="rgb(0, 0, 0)" stroke-width="7.00" stroke-opacity="1.00" stroke-linejoin="round"/>
<path d="M71.47,329.27 C73.13,327.02 76.52,323.06 79.27,320.25 C83.87,315.63 92.78,311.24 95.28,310.62 C95.28,310.62 95.65,311.28 95.65,311.28" fill="none" stroke="rgb(0, 0, 0)" stroke-width="7.00" stroke-opacity="1.00" stroke-linejoin="round"/>
<path d="M92.19,293.94 C92.33,296.76 93.31,302.68 94.44,304.82 C97.76,310.73 104.36,309.98 105.59,309.34 C106.57,307.31 106.68,299.49 106.47,297.74 C106.26,296.07 104.85,291.70 103.65,289.15 C103.01,287.86 101.23,285.40 100.20,284.57 C99.06,283.71 96.60,283.87 95.38,284.81 C93.03,286.74 91.17,290.88 91.00,292.04 C90.97,292.33 90.94,292.87 90.94,293.64" fill="none" stroke="rgb(0, 0, 0)" stroke-width="7.00" stroke-opacity="1.00" stroke-linejoin="round"/>
<path d="M109.25,303.17 C116.39,300.78 125.61,299.35 127.67,299.74 C127.67,299.74 128.09,300.44 128.09,300.44" fill="none" stroke="rgb(0, 0, 0)" stroke-width="7.00" stroke-opacity="1.00" stroke-linejoin="round"/>
<path d="M258.40,280.85 C260.73,274.14 261.61,272.98 262.88,272.65 C264.68,273.44 271.20,276.67 274.02,277.00 C275.55,277.17 277.00,277.10 279.06,276.77 C281.17,276.38 283.47,273.70 286.16,269.33 C286.82,268.28 288.70,265.36 289.24,264.79 C289.97,264.07 291.53,264.09 294.60,264.57 C298.55,265.24 304.06,265.17 306.75,263.85 C308.42,262.99 314.47,255.50 317.80,253.58 C320.02,252.32 327.22,249.41 328.56,248.72 C331.21,247.32 334.60,242.83 334.87,240.38 C335.00,238.82 334.20,235.81 333.17,233.63 C331.81,230.77 331.51,228.80 332.33,227.53 C332.38,227.46 339.18,223.69 340.38,222.80 C341.45,221.97 343.11,219.95 343.47,218.89 C343.84,217.66 343.33,215.02 342.43,213.70 C340.68,211.28 328.83,203.26 328.20,202.91 C327.84,202.70 327.15,202.37 326.13,201.89" fill="none" stroke="rgb(0, 0, 0)" stroke-width="7.00" stroke-opacity="1.00" stroke-linejoin="round"/>
<path d="M137.72,194.09 C128.91,199.49 124.26,203.24 123.85,204.60 C123.66,205.42 124.45,206.66 125.63,207.42 C126.05,207.68 133.74,211.88 134.59,212.84 C135.80,214.30 136.49,216.82 136.32,219.12 C136.11,221.41 131.74,230.28 131.38,231.80 C130.86,234.27 131.39,236.92 132.81,238.13 C133.40,238.62 136.73,240.10 137.57,240.57 C138.60,241.15 139.63,242.59 140.00,243.94 C140.37,245.42 140.41,248.92 140.44,249.96 C140.51,252.08 141.32,254.41 142.44,255.41 C144.21,256.92 151.62,258.61 152.32,259.69 C153.04,260.81 154.36,263.95 155.57,264.84 C156.77,265.70 158.30,266.55 159.12,266.63 C159.53,266.66 160.43,266.61 161.83,266.47" fill="none" stroke="rgb(0, 0, 0)" stroke-width="7.00" stroke-opacity="1.00" stroke-linejoin="round"/>
<path d="M375.06,209.35 C375.85,212.29 376.41,216.35 376.82,221.75 C377.79,238.67 378.97,272.66 378.38,284.57 C378.13,288.63 377.35,293.83 377.10,295.07 C377.05,295.30 377.00,295.52 376.94,295.73" fill="none" stroke="rgb(0, 0, 0)" stroke-width="7.00" stroke-opacity="1.00" stroke-linejoin="round"/>
<path d="M118.99,189.29 C118.56,189.34 118.18,189.37 117.85,189.37 C116.08,189.35 114.38,189.01 113.21,188.35 C110.98,187.05 106.28,182.85 103.68,179.97 C101.19,177.17 97.72,172.37 96.86,170.17 C95.99,167.82 96.33,163.45 97.46,161.48 C98.49,159.76 102.56,155.94 104.26,154.73 C109.09,151.35 121.27,145.76 127.77,143.50 C129.58,142.87 131.80,142.17 132.81,141.90" fill="none" stroke="rgb(0, 0, 0)" stroke-width="7.00" stroke-opacity="1.00" stroke-linejoin="round"/>
<path d="M132.38,139.65 C132.38,139.66 132.39,139.61 132.40,139.60 C133.20,137.30 135.70,125.36 139.00,119.75 C141.77,115.14 150.97,104.98 155.71,101.24 C161.63,96.59 169.46,91.87 177.44,88.14 C184.26,84.96 196.77,80.96 203.10,79.64 C209.50,78.33 221.28,76.82 229.40,76.24 C234.66,75.90 250.25,75.96 256.83,76.50 C264.54,77.20 279.02,79.44 286.44,81.05 C293.51,82.68 308.71,87.09 312.65,88.45 C321.21,91.53 332.05,95.91 338.00,98.84 C343.63,101.63 355.92,108.96 360.38,112.18 C366.83,116.86 377.77,127.06 382.53,132.36 C384.76,134.86 389.12,140.38 390.33,142.34 C391.43,144.13 394.29,150.48 394.87,152.46 C395.64,155.13 396.64,164.37 396.74,166.20 C397.02,171.33 396.37,177.14 395.52,179.16 C394.78,180.88 393.80,182.23 393.13,182.65" fill="none" stroke="rgb(0, 0, 0)" stroke-width="7.00" stroke-opacity="1.00" stroke-linejoin="round"/>
<path d="M119.82,373.92 C118.44,379.81 118.11,388.65 118.21,401.14 C118.32,406.94 118.59,412.69 119.01,416.11 C119.21,417.67 119.59,418.43 120.48,419.37 C122.52,419.67 124.84,418.57 130.14,415.44 C133.71,413.36 138.51,411.59 142.34,411.33 C147.88,411.04 161.63,414.21 168.53,415.63 C184.21,418.61 224.31,426.14 228.56,426.31 C230.89,426.39 236.47,425.44 240.30,424.44 C243.32,423.64 251.31,420.69 252.00,420.46 C256.10,419.10 260.84,418.44 263.56,418.69 C266.29,418.95 302.73,424.54 310.50,425.69 C315.18,426.36 319.31,426.51 324.41,425.98 C334.87,424.68 345.16,422.67 353.82,420.13 C360.91,418.04 370.19,414.50 376.14,411.70 C377.71,411.02 384.35,409.92 388.32,409.69 C388.32,409.69 386.80,397.24 386.80,397.24 C386.80,397.24 386.19,397.16 386.19,397.16" fill="none" stroke="rgb(0, 0, 0)" stroke-width="7.00" stroke-opacity="1.00" stroke-linejoin="round"/>
<path d="M328.69,165.93 C328.69,165.93 328.59,165.13 328.59,165.13 C325.40,162.37 316.43,159.16 305.49,156.17 C290.42,152.38 262.90,147.48 242.99,144.72 C227.37,142.82 200.26,140.85 180.63,140.31 C170.27,140.08 161.67,140.54 159.95,140.92 C159.55,141.01 159.10,141.21 158.61,141.53" fill="none" stroke="rgb(0, 0, 0)" stroke-width="7.00" stroke-opacity="1.00" stroke-linejoin="round"/>
<path d="M307.70,137.67 C307.81,138.57 308.29,140.32 308.85,141.62 C311.27,147.21 316.30,153.46 317.18,154.00 C317.42,154.14 317.84,154.29 318.42,154.44" fill="none" stroke="rgb(0, 0, 0)" stroke-width="7.00" stroke-opacity="1.00" stroke-linejoin="round"/>
<path d="M335.64,166.21 C337.75,164.47 345.26,162.17 348.62,161.49 C351.68,160.88 360.66,160.07 361.02,160.23 C361.38,160.39 362.09,160.97 363.14,161.95 C362.92,164.31 361.89,166.64 360.08,168.07 C358.77,169.09 355.81,170.31 353.85,170.83 C353.01,171.03 352.17,171.24 351.33,171.45" fill="none" stroke="rgb(0, 0, 0)" stroke-width="7.00" stroke-opacity="1.00" stroke-linejoin="round"/>
<path d="M209.52,131.92 C209.59,133.33 210.02,134.87 210.84,136.04 C211.20,136.55 213.85,139.51 214.25,140.09 C214.47,140.39 214.77,140.92 215.14,141.67" fill="none" stroke="rgb(0, 0, 0)" stroke-width="7.00" stroke-opacity="1.00" stroke-linejoin="round"/>
</g>
</svg>
